# Tree
# Vertices
v 0.954155 2.062381 -0.846402
v 0.470130 2.376816 -0.190003
v 0.314235 2.483817 -0.734542
v 1.541329 2.159249 -0.183581
v 1.660749 2.246990 -0.718320
v 0.466197 2.757622 -1.185627
v 0.994058 2.591389 -1.356046
v 1.541104 2.569230 -1.167317
v 1.087353 3.670412 -0.117597
v 0.545491 3.194076 0.172111
v 1.091365 3.141642 0.373815
v 1.616931 2.978755 0.172947
v 1.749554 3.275557 -0.274416
v 0.547575 3.574135 -0.823555
v 1.100317 3.625558 -0.890019
v 1.622722 3.387989 -0.810832
v 1.051799 2.553668 0.328643
v 0.992971 2.106497 -0.092267
v 1.671653 2.524585 0.063065
v 1.913799 2.750170 -0.516243
v 1.681020 3.002705 -1.076812
v 1.077795 3.178786 -1.325577
v 0.433032 3.213382 -1.091033
v 0.166720 3.025824 -0.523292
v 0.428211 2.771030 0.063417
v 0.402739 3.509556 -0.283603
v 0.176443 2.691971 1.000661
v -0.005000 3.337125 1.490572
v -0.182112 3.282023 0.960175
v 0.808045 2.717376 1.574311
v 0.905875 2.502780 1.029789
v -0.013989 3.271475 0.418501
v 0.371027 2.870339 0.302568
v 0.886172 2.622220 0.473507
v 1.236919 3.974051 1.029013
v 0.650915 4.083611 1.507111
v 1.164610 3.802735 1.726883
v 1.441297 3.346188 1.584417
v 1.583125 3.285190 1.013071
v 0.974333 3.716255 0.318502
v 0.503358 4.208428 0.939489
v 1.370066 3.270260 0.464070
v 0.758320 3.386364 1.907132
v 0.290987 2.923567 1.675717
v 1.170123 3.001373 1.673489
v 1.410573 2.755346 1.011278
v 1.203153 2.879010 0.378018
v 0.664948 3.285328 0.093781
v 0.149451 3.685572 0.327697
v 0.471943 3.997098 0.419541
v 0.012336 3.864640 0.901727
v 0.286075 3.780548 1.555419
v -0.270746 2.160008 -0.708831
v -1.019967 2.249815 0.291600
v -1.245766 2.318281 -0.412439
v 0.575575 2.407944 0.235227
v 0.748743 2.484231 -0.543110
v -0.996075 2.936560 -1.079890
v -0.198934 2.972226 -1.443083
v 0.580162 2.942749 -1.198168
v -0.096225 4.537519 0.172186
v -0.896713 3.488060 0.646713
v -0.050997 3.738341 0.949744
v 0.850665 3.947305 0.134679
v 0.691032 3.573173 0.771979
v -0.909776 4.179397 -0.724517
v -0.093109 4.490803 -0.843431
v 0.658664 4.112569 -0.661157
v -1.081445 2.809347 0.583097
v -0.240177 2.230117 0.350677
v -0.160305 2.897368 0.933391
v 0.762224 2.927543 0.617559
v 1.097167 3.160238 -0.209593
v 0.770939 3.543918 -1.046896
v -0.078382 3.832242 -1.424007
v -1.050793 3.598367 -1.011015
v -1.474034 3.045664 -0.235674
v -1.129717 3.913660 -0.063778
v -0.209322 -0.488840 -0.159572
v 0.247582 -0.627187 -0.561240
v 0.303109 -0.630256 -0.109100
v 0.420454 2.843777 -0.421360
v 0.314325 2.852178 -0.508697
v 0.312531 2.865407 -0.415162
v 0.165833 1.121909 -0.178112
v -0.095609 0.347505 -0.209678
v 0.215806 0.255846 -0.129208
v 0.140318 1.110257 -0.350178
v 0.136676 0.253923 -0.397354
v -0.170529 0.326969 -0.483231
v -0.055458 1.160145 -0.378583
v -0.032865 1.178345 -0.201809
v 0.115546 1.997398 -0.130408
v 0.035537 1.840005 -0.032578
v 0.186111 1.967864 -0.316874
v 0.422425 2.830868 -0.514783
v 0.039899 1.824146 -0.172033
v -0.014887 2.029568 -0.228750
v -0.267395 -0.523359 -0.610363
v -0.076932 2.061162 -0.051789
v -0.114395 1.869158 -0.151970
v 0.601384 2.967269 1.077430
v 0.429616 2.965274 1.078282
v 0.540158 2.837937 1.072625
v -0.114861 1.887631 -0.018221
v 0.470385 2.816386 0.813895
v 0.082392 2.187165 0.006107
v -0.000418 2.031400 0.146505
v 0.610507 2.693142 0.817658
v 0.145419 1.970461 0.097059
v 0.208099 2.130924 -0.064735
v 0.641950 2.868134 0.776025
v 0.514392 2.974762 0.797090
v 0.500971 3.082891 1.103331
# Vertices normals
vn -0.1504 -0.9215 -0.3581
vn -0.5127 -0.8579 0.0329
vn -0.5725 -0.7525 -0.3255
vn 0.0727 -0.9869 -0.1437
vn 0.3120 -0.8895 -0.3338
vn -0.4115 -0.7121 -0.5688
vn -0.1424 -0.6658 -0.7324
vn 0.2586 -0.7125 -0.6523
vn 0.1213 0.9145 0.3861
vn -0.2618 0.7011 0.6632
vn 0.1862 0.6479 0.7386
vn 0.4378 0.6853 0.5821
vn 0.5578 0.7527 0.3497
vn -0.0806 0.9923 0.0944
vn 0.1432 0.9868 -0.0763
vn 0.4731 0.8810 0.0064
vn -0.0561 -0.3911 0.9186
vn -0.4633 -0.5391 0.7034
vn -0.1085 -0.6870 0.7186
vn 0.1942 -0.5904 0.7834
vn 0.3482 -0.4306 0.8327
vn -0.3611 -0.1441 0.9213
vn -0.0543 -0.0527 0.9971
vn 0.3623 -0.1443 0.9208
vn 0.9966 -0.0775 -0.0296
vn 0.8734 -0.4592 0.1622
vn 0.8989 -0.4002 -0.1782
vn 0.8977 -0.2040 -0.3906
vn 0.9233 0.0463 -0.3812
vn 0.9499 0.0345 0.3106
vn 0.9560 0.2572 0.1414
vn 0.9228 0.3274 -0.2030
vn 0.0827 0.3852 -0.9191
vn 0.3698 0.0401 -0.9283
vn 0.0114 0.0304 -0.9995
vn -0.2547 0.1846 -0.9492
vn -0.3084 0.4050 -0.8607
vn 0.3731 0.5605 -0.7394
vn 0.1333 0.7036 -0.6980
vn -0.2012 0.6550 -0.7283
vn -0.9958 0.0906 0.0128
vn -0.9155 -0.0318 -0.4011
vn -0.9625 -0.2593 -0.0794
vn -0.9433 -0.2407 0.2284
vn -0.9194 -0.0923 0.3824
vn -0.8873 0.4188 -0.1930
vn -0.9079 0.3929 0.1462
vn -0.8825 0.1621 0.4415
vn -0.6032 -0.7975 0.0141
vn -0.8267 -0.4688 0.3112
vn -0.8511 -0.5229 0.0461
vn -0.3014 -0.9042 0.3027
vn -0.2266 -0.9702 0.0859
vn -0.7347 -0.6426 -0.2177
vn -0.5512 -0.7472 -0.3714
vn -0.2806 -0.9252 -0.2555
vn 0.6447 0.7582 -0.0971
vn 0.3285 0.9250 0.1907
vn 0.6947 0.6680 0.2667
vn 0.8653 0.4733 0.1647
vn 0.9048 0.4216 -0.0605
vn 0.5214 0.7169 -0.4627
vn 0.3168 0.9251 -0.2095
vn 0.7890 0.4684 -0.3976
vn -0.0470 0.0307 0.9984
vn -0.4815 0.1203 0.8681
vn -0.2798 -0.2232 0.9337
vn 0.0384 -0.3694 0.9285
vn 0.2666 -0.2896 0.9192
vn -0.1999 0.3685 0.9079
vn 0.1698 0.2678 0.9484
vn 0.4232 -0.0653 0.9037
vn 0.7611 -0.6471 0.0451
vn 0.4555 -0.7766 0.4351
vn 0.4286 -0.8985 0.0945
vn 0.5908 -0.7808 -0.2034
vn 0.7463 -0.5671 -0.3484
vn 0.7745 -0.5688 0.2768
vn 0.9541 -0.2989 -0.0170
vn 0.8896 -0.2979 -0.3461
vn 0.0255 -0.0241 -0.9994
vn 0.0973 -0.4699 -0.8773
vn -0.2025 -0.3366 -0.9196
vn -0.3519 -0.0567 -0.9343
vn -0.3138 0.1829 -0.9317
vn 0.3846 0.0248 -0.9228
vn 0.3101 0.2978 -0.9029
vn -0.0528 0.4037 -0.9134
vn -0.7972 0.6037 0.0001
vn -0.9108 0.2843 -0.2994
vn -0.9498 0.3128 -0.0007
vn -0.8267 0.5137 0.2294
vn -0.6829 0.6351 0.3609
vn -0.6347 0.7263 -0.2639
vn -0.5752 0.8156 0.0625
vn -0.5821 0.7486 0.3175
vn 0.0141 -0.9155 -0.4022
vn -0.1016 -0.9947 0.0132
vn -0.2961 -0.8732 -0.3871
vn 0.2079 -0.9768 -0.0505
vn 0.3604 -0.8884 -0.2844
vn -0.2926 -0.6440 -0.7068
vn -0.0668 -0.6400 -0.7655
vn 0.2657 -0.7019 -0.6608
vn -0.0148 0.9303 0.3665
vn -0.4774 0.6375 0.6047
vn 0.0165 0.7105 0.7035
vn 0.4746 0.7915 0.3851
vn 0.2186 0.8594 0.4622
vn -0.3255 0.9052 0.2731
vn 0.0194 0.9973 -0.0713
vn 0.4977 0.8673 0.0087
vn -0.3074 -0.2696 0.9126
vn 0.0727 -0.6616 0.7464
vn -0.0247 -0.3410 0.9397
vn 0.2435 -0.6284 0.7388
vn 0.3269 -0.4548 0.8284
vn -0.3396 0.0023 0.9406
vn -0.0591 0.0263 0.9979
vn 0.2849 -0.1321 0.9494
vn 0.9958 -0.0908 -0.0134
vn 0.8555 -0.4835 0.1856
vn 0.9002 -0.3989 -0.1746
vn 0.9087 -0.1892 -0.3722
vn 0.9368 0.0683 -0.3431
vn 0.9624 0.0382 0.2691
vn 0.9582 0.2645 0.1095
vn 0.9230 0.3372 -0.1854
vn 0.0454 0.3792 -0.9242
vn 0.3805 0.0472 -0.9236
vn -0.1200 0.0044 -0.9928
vn -0.4530 0.2207 -0.8638
vn -0.4225 0.0497 -0.9050
vn 0.4525 0.5578 -0.6958
vn 0.0853 0.6875 -0.7211
vn -0.4076 0.5269 -0.7458
vn -0.9997 0.0181 0.0142
vn -0.8719 -0.0561 -0.4864
vn -0.9473 -0.3146 -0.0609
vn -0.9290 -0.2418 0.2802
vn -0.9022 -0.0529 0.4280
vn -0.9354 0.3468 0.0690
vn -0.9171 0.2400 -0.3184
vn -0.8632 0.2200 0.4544
vn -0.2342 -0.9698 0.0676
vn -0.2408 -0.9687 0.0598
vn -0.2684 -0.9630 0.0264
vn 0.1859 0.9736 -0.1322
vn 0.1861 0.9735 -0.1325
vn 0.1873 0.9731 -0.1340
vn -0.1435 0.0081 0.9896
vn -0.2218 0.0352 0.9745
vn -0.2386 0.0410 0.9702
vn 0.9837 0.0416 -0.1752
vn 0.9639 0.0164 -0.2659
vn 0.9590 0.0115 -0.2831
vn 0.1920 0.0898 -0.9773
vn 0.2639 0.0588 -0.9628
vn 0.1678 0.1000 -0.9807
vn -0.9863 0.0788 0.1448
vn -0.9663 0.0973 0.2384
vn -0.9902 0.0736 0.1190
vn 0.1517 0.2768 0.9489
vn 0.4053 0.2006 0.8919
vn 0.1121 0.2867 0.9514
vn -0.0125 -0.2466 0.9690
vn -0.1577 -0.2294 0.9605
vn -0.1785 -0.2264 0.9575
vn -0.1247 0.0307 0.9917
vn -0.1839 0.0650 0.9808
vn -0.2247 0.0887 0.9704
vn 0.9645 -0.2468 0.0943
vn 0.9124 -0.2016 0.3563
vn 0.9662 -0.2519 0.0552
vn 0.9842 0.1766 -0.0097
vn 0.9746 0.1760 -0.1388
vn 0.9720 0.1757 -0.1560
vn 0.9792 0.1348 -0.1519
vn 0.9660 0.1048 -0.2364
vn 0.9552 0.0877 -0.2825
vn -0.1420 -0.1901 -0.9714
vn -0.4084 -0.1366 -0.9025
vn -0.4315 -0.1310 -0.8925
vn 0.1766 0.2692 -0.9468
vn -0.0029 0.2974 -0.9547
vn 0.2040 0.2639 -0.9427
vn 0.1687 0.1780 -0.9695
vn 0.2419 0.1375 -0.9605
vn 0.1324 0.1973 -0.9713
vn -0.9338 0.3437 -0.0991
vn -0.8973 0.2744 -0.3456
vn -0.8928 0.2692 -0.3611
vn -0.9840 -0.1253 0.1267
vn -0.9925 -0.1191 0.0278
vn -0.9823 -0.1259 0.1385
vn -0.9835 0.1052 0.1472
vn -0.9681 0.1308 0.2136
vn -0.9882 0.0946 0.1201
vn 0.0063 -0.1162 0.9932
vn 0.0065 -0.1338 0.9910
vn 0.0054 -0.0397 0.9992
vn 0.8782 -0.4325 0.2043
vn 0.8545 -0.4396 0.2767
vn 0.9071 -0.4142 0.0755
vn -0.3674 -0.3373 -0.8668
vn -0.3359 -0.3329 -0.8811
vn -0.2115 -0.3121 -0.9262
vn -0.9218 0.3048 -0.2394
vn -0.9370 0.2868 -0.1992
vn -0.9777 0.2075 -0.0321
vn -0.9297 0.3016 0.2116
vn -0.8758 0.4804 0.0465
vn -0.8695 0.4927 0.0338
vn -0.3780 -0.4638 0.8013
vn -0.0812 -0.6718 0.7363
vn -0.0441 -0.6910 0.7215
vn 0.8898 -0.4386 -0.1263
vn 0.9307 -0.2561 -0.2612
vn 0.8825 -0.4570 -0.1113
vn 0.0011 0.7487 -0.6629
vn 0.3220 0.5808 -0.7477
vn -0.0275 0.7586 -0.6510
vn -0.8523 0.4640 -0.2413
vn -0.9132 0.3098 -0.2649
vn -0.9338 0.2304 -0.2738
vn -0.8023 0.4613 0.3788
vn -0.7780 0.5036 0.3758
vn -0.6559 0.6671 0.3532
vn -0.7023 -0.6683 0.2451
vn -0.6700 -0.7028 0.2392
vn -0.6455 -0.7268 0.2346
vn -0.0850 -0.6892 0.7195
vn -0.1105 -0.6900 0.7153
vn -0.0409 -0.6867 0.7257
vn 0.9349 -0.1868 0.3018
vn 0.9038 -0.3263 0.2770
vn 0.9445 -0.0949 0.3145
vn 0.8383 -0.5175 -0.1714
vn 0.8398 -0.5151 -0.1713
vn 0.8471 -0.5032 -0.1708
vn 0.6423 0.7451 -0.1794
vn 0.6908 0.6961 -0.1958
vn 0.6153 0.7697 -0.1703
vn -0.1751 0.5546 -0.8135
vn -0.1769 0.5542 -0.8134
vn -0.2125 0.5459 -0.8105
vn -0.1642 -0.9830 0.0825
vn -0.3119 0.9055 0.2879
vn -0.4690 -0.2955 0.8323
vn 0.9249 -0.2091 0.3175
vn 0.4521 0.3303 -0.8285
vn -0.8959 0.2671 -0.3551
vn -0.6014 -0.7216 0.3429
vn 0.4427 0.8352 -0.3263
vn -0.3751 0.3486 0.8589
vn 0.6281 -0.6274 0.4603
vn 0.3053 -0.2428 -0.9208
vn -0.7880 0.5080 -0.3478
vn 0.1289 -0.9878 0.0873
vn -0.5505 0.7544 0.3575
vn -0.0900 -0.4566 0.8851
vn 0.9223 -0.2078 0.3259
vn 0.5026 0.3512 -0.7899
vn -0.9495 0.2654 -0.1674
vn -0.2059 -0.9733 0.1011
vn 0.1847 0.9741 -0.1307
vn -0.1185 -0.0005 0.9929
vn 0.9875 0.0485 -0.1497
vn 0.2802 0.0516 -0.9585
vn -0.9615 0.1007 0.2558
vn 0.4253 0.1935 0.8841
vn 0.0136 -0.2491 0.9684
vn -0.0944 0.0133 0.9954
vn 0.9060 -0.1978 0.3742
vn 0.9843 0.1764 0.0107
vn 0.9820 0.1459 -0.1196
vn -0.0940 -0.1980 -0.9757
vn -0.0359 0.3015 -0.9528
vn 0.2915 0.1089 -0.9503
vn -0.9340 0.3508 -0.0675
vn -0.9929 -0.1181 0.0128
vn -0.9570 0.1452 0.2512
vn 0.0073 -0.2125 0.9771
vn 0.8118 -0.4452 0.3778
vn -0.4640 -0.3486 -0.8143
vn -0.8592 0.3582 -0.3652
vn -0.9318 0.2830 0.2271
vn -0.4066 -0.4378 0.8018
vn 0.9323 -0.2333 -0.2765
vn 0.3468 0.5631 -0.7501
vn -0.8107 0.5400 -0.2262
vn -0.8849 0.2672 0.3815
vn -0.7258 -0.6412 0.2491
vn -0.1511 -0.6904 0.7075
vn 0.8701 -0.4214 0.2557
vn 0.8309 -0.5292 -0.1718
vn 0.7160 0.6676 -0.2043
vn -0.1472 0.5605 -0.8149
# Faces
f 1//1 2//2 3//3
f 4//4 1//1 5//5
f 1//1 6//6 7//7
f 8//8 1//1 7//7
f 9//9 10//10 11//11
f 9//9 12//12 13//13
f 14//14 9//9 15//15
f 16//16 9//9 13//13
f 17//17 2//18 18//19
f 17//17 4//20 19//21
f 10//22 17//17 11//23
f 12//24 17//17 19//21
f 20//25 4//26 5//27
f 20//25 8//28 21//29
f 12//30 20//25 13//31
f 16//32 20//25 21//29
f 22//33 8//34 7//35
f 22//33 6//36 23//37
f 16//38 22//33 15//39
f 14//40 22//33 23//37
f 24//41 6//42 3//43
f 24//41 2//44 25//45
f 14//46 24//41 26//47
f 10//48 24//41 25//45
f 27//49 28//50 29//51
f 30//52 27//49 31//53
f 27//49 32//54 33//55
f 34//56 27//49 33//55
f 35//57 36//58 37//59
f 35//57 38//60 39//61
f 40//62 41//63 35//57
f 42//64 35//57 39//61
f 43//65 28//66 44//67
f 43//65 30//68 45//69
f 36//70 43//65 37//71
f 38//72 43//65 45//69
f 46//73 30//74 31//75
f 46//73 34//76 47//77
f 38//78 46//73 39//79
f 42//80 46//73 47//77
f 48//81 34//82 33//83
f 48//81 32//84 49//85
f 42//86 48//81 40//87
f 50//88 48//81 49//85
f 51//89 32//90 29//91
f 51//89 28//92 52//93
f 50//94 51//89 41//95
f 41//95 52//93 36//96
f 53//97 54//98 55//99
f 56//100 53//97 57//101
f 53//97 58//102 59//103
f 60//104 53//97 59//103
f 61//105 62//106 63//107
f 64//108 63//107 65//109
f 66//110 61//105 67//111
f 68//112 61//105 64//108
f 69//113 70//114 71//115
f 71//115 56//116 72//117
f 62//118 71//115 63//119
f 65//120 71//115 72//117
f 73//121 56//122 57//123
f 73//121 60//124 74//125
f 65//126 73//121 64//127
f 68//128 73//121 74//125
f 75//129 60//130 59//131
f 76//132 59//131 58//133
f 68//134 75//129 67//135
f 66//136 75//129 76//132
f 77//137 58//138 55//139
f 77//137 54//140 69//141
f 78//142 76//143 77//137
f 62//144 77//137 69//141
f 79//145 80//146 81//147
f 82//148 83//149 84//150
f 85//151 86//152 87//153
f 88//154 87//155 89//156
f 88//157 90//158 91//159
f 91//160 86//161 92//162
f 84//163 93//164 82//165
f 94//166 92//167 85//168
f 79//169 87//170 86//171
f 82//172 95//173 96//174
f 97//175 85//176 88//177
f 81//178 89//179 87//180
f 83//181 95//182 98//183
f 91//184 97//185 88//186
f 99//187 89//188 80//189
f 84//190 98//191 100//192
f 92//193 101//194 91//195
f 79//196 90//197 99//198
f 102//199 103//200 104//201
f 97//202 93//203 94//204
f 98//205 97//206 101//207
f 100//208 101//209 105//210
f 106//211 107//212 108//213
f 109//214 108//215 110//216
f 111//217 109//218 110//219
f 107//220 112//221 111//222
f 103//223 113//224 106//225
f 100//226 108//227 107//228
f 104//229 106//230 109//231
f 108//232 94//233 110//234
f 112//235 104//236 109//237
f 110//238 93//239 111//240
f 113//241 102//242 112//243
f 93//244 107//245 111//246
f 1//1 18//247 2//2
f 4//4 18//247 1//1
f 1//1 3//3 6//6
f 8//8 5//5 1//1
f 9//9 26//248 10//10
f 9//9 11//11 12//12
f 14//14 26//248 9//9
f 16//16 15//15 9//9
f 17//17 25//249 2//18
f 17//17 18//19 4//20
f 10//22 25//249 17//17
f 12//24 11//23 17//17
f 20//25 19//250 4//26
f 20//25 5//27 8//28
f 12//30 19//250 20//25
f 16//32 13//31 20//25
f 22//33 21//251 8//34
f 22//33 7//35 6//36
f 16//38 21//251 22//33
f 14//40 15//39 22//33
f 24//41 23//252 6//42
f 24//41 3//43 2//44
f 14//46 23//252 24//41
f 10//48 26//47 24//41
f 27//49 44//253 28//50
f 30//52 44//253 27//49
f 27//49 29//51 32//54
f 34//56 31//53 27//49
f 35//57 41//63 36//58
f 35//57 37//59 38//60
f 40//62 50//254 41//63
f 42//64 40//62 35//57
f 43//65 52//255 28//66
f 43//65 44//67 30//68
f 36//70 52//255 43//65
f 38//72 37//71 43//65
f 46//73 45//256 30//74
f 46//73 31//75 34//76
f 38//78 45//256 46//73
f 42//80 39//79 46//73
f 48//81 47//257 34//82
f 48//81 33//83 32//84
f 42//86 47//257 48//81
f 50//88 40//87 48//81
f 51//89 49//258 32//90
f 51//89 29//91 28//92
f 50//94 49//258 51//89
f 41//95 51//89 52//93
f 53//97 70//259 54//98
f 56//100 70//259 53//97
f 53//97 55//99 58//102
f 60//104 57//101 53//97
f 61//105 78//260 62//106
f 64//108 61//105 63//107
f 66//110 78//260 61//105
f 68//112 67//111 61//105
f 69//113 54//261 70//114
f 71//115 70//114 56//116
f 62//118 69//113 71//115
f 65//120 63//119 71//115
f 73//121 72//262 56//122
f 73//121 57//123 60//124
f 65//126 72//262 73//121
f 68//128 64//127 73//121
f 75//129 74//263 60//130
f 76//132 75//129 59//131
f 68//134 74//263 75//129
f 66//136 67//135 75//129
f 77//137 76//143 58//138
f 77//137 55//139 54//140
f 78//142 66//264 76//143
f 62//144 78//142 77//137
f 79//145 99//265 80//146
f 82//148 96//266 83//149
f 85//151 92//267 86//152
f 88//154 85//268 87//155
f 88//157 89//269 90//158
f 91//160 90//270 86//161
f 84//163 100//271 93//164
f 94//166 105//272 92//167
f 79//169 81//273 87//170
f 82//172 93//274 95//173
f 97//175 94//275 85//176
f 81//178 80//276 89//179
f 83//181 96//277 95//182
f 91//184 101//278 97//185
f 99//187 90//279 89//188
f 84//190 83//280 98//191
f 92//193 105//281 101//194
f 79//196 86//282 90//197
f 102//199 114//283 103//200
f 97//202 95//284 93//203
f 98//205 95//285 97//206
f 100//208 98//286 101//209
f 106//211 113//287 107//212
f 109//214 106//288 108//215
f 111//217 112//289 109//218
f 107//220 113//290 112//221
f 103//223 114//291 113//224
f 100//226 105//292 108//227
f 104//229 103//293 106//230
f 108//232 105//294 94//233
f 112//235 102//295 104//236
f 110//238 94//296 93//239
f 113//241 114//297 102//242
f 93//244 100//298 107//245